<mxfile host="app.diagrams.net" modified="2023-03-10T22:03:00.637Z" agent="5.0 (Macintosh; Intel Mac OS X 10_15_7) AppleWebKit/537.36 (KHTML, like Gecko) Chrome/110.0.0.0 Safari/537.36" etag="TKehtvbDOlONqzdXPX5X" version="21.0.6" type="github">
  <diagram name="Page-1" id="kgMieb5tGnYmpSowrMJh">
    <mxGraphModel dx="1131" dy="1679" grid="1" gridSize="10" guides="1" tooltips="1" connect="1" arrows="1" fold="1" page="1" pageScale="1" pageWidth="850" pageHeight="1100" math="0" shadow="0">
      <root>
        <mxCell id="0" />
        <mxCell id="1" parent="0" />
        <mxCell id="WulUEYC8_41dMv2FCYNq-56" value="funct3" style="edgeStyle=orthogonalEdgeStyle;rounded=0;orthogonalLoop=1;jettySize=auto;html=1;exitX=0.25;exitY=0;exitDx=0;exitDy=0;entryX=0.653;entryY=1.033;entryDx=0;entryDy=0;entryPerimeter=0;" parent="1" source="WulUEYC8_41dMv2FCYNq-2" target="WulUEYC8_41dMv2FCYNq-35" edge="1">
          <mxGeometry relative="1" as="geometry" />
        </mxCell>
        <mxCell id="WulUEYC8_41dMv2FCYNq-2" value="&lt;div&gt;Cache entry&lt;/div&gt;" style="rounded=0;whiteSpace=wrap;html=1;rotation=90;" parent="1" vertex="1">
          <mxGeometry x="235" y="325" width="170" height="60" as="geometry" />
        </mxCell>
        <mxCell id="spKQ24fph7Tg9B2GQlF--1" value="Data Memory" style="rounded=0;whiteSpace=wrap;html=1;" parent="1" vertex="1">
          <mxGeometry x="1385.31" y="170" width="230" height="65" as="geometry" />
        </mxCell>
        <mxCell id="WulUEYC8_41dMv2FCYNq-21" value="" style="endArrow=classic;html=1;rounded=0;entryX=0.5;entryY=1;entryDx=0;entryDy=0;exitX=0.5;exitY=0;exitDx=0;exitDy=0;" parent="1" target="WulUEYC8_41dMv2FCYNq-2" edge="1">
          <mxGeometry width="50" height="50" relative="1" as="geometry">
            <mxPoint x="240" y="355" as="sourcePoint" />
            <mxPoint x="370" y="400" as="targetPoint" />
          </mxGeometry>
        </mxCell>
        <mxCell id="spKQ24fph7Tg9B2GQlF--7" value="" style="endArrow=classic;html=1;rounded=0;exitX=0.064;exitY=0.998;exitDx=0;exitDy=0;exitPerimeter=0;" parent="1" source="spKQ24fph7Tg9B2GQlF--1" edge="1">
          <mxGeometry width="50" height="50" relative="1" as="geometry">
            <mxPoint x="1485.31" y="260" as="sourcePoint" />
            <mxPoint x="1400.31" y="330" as="targetPoint" />
          </mxGeometry>
        </mxCell>
        <mxCell id="spKQ24fph7Tg9B2GQlF--8" value="mem_addr" style="edgeLabel;html=1;align=center;verticalAlign=middle;resizable=0;points=[];" parent="spKQ24fph7Tg9B2GQlF--7" vertex="1" connectable="0">
          <mxGeometry x="-0.2244" relative="1" as="geometry">
            <mxPoint x="-15" y="-2" as="offset" />
          </mxGeometry>
        </mxCell>
        <mxCell id="WulUEYC8_41dMv2FCYNq-22" value="I-cache&lt;br&gt;(CP1: Magic mem)" style="rounded=0;whiteSpace=wrap;html=1;rotation=90;" parent="1" vertex="1">
          <mxGeometry x="35" y="300" width="260" height="150" as="geometry" />
        </mxCell>
        <mxCell id="spKQ24fph7Tg9B2GQlF--13" value="" style="endArrow=classic;html=1;rounded=0;exitX=0.183;exitY=1.003;exitDx=0;exitDy=0;exitPerimeter=0;" parent="1" source="spKQ24fph7Tg9B2GQlF--1" edge="1">
          <mxGeometry width="50" height="50" relative="1" as="geometry">
            <mxPoint x="1485.31" y="260" as="sourcePoint" />
            <mxPoint x="1427.31" y="480" as="targetPoint" />
          </mxGeometry>
        </mxCell>
        <mxCell id="spKQ24fph7Tg9B2GQlF--14" value="m&lt;font style=&quot;font-size: 10px;&quot;&gt;&lt;font style=&quot;font-size: 9px;&quot;&gt;em_read&lt;/font&gt;&lt;/font&gt;" style="edgeLabel;html=1;align=center;verticalAlign=middle;resizable=0;points=[];" parent="spKQ24fph7Tg9B2GQlF--13" vertex="1" connectable="0">
          <mxGeometry x="0.557" y="1" relative="1" as="geometry">
            <mxPoint x="-3" y="-36" as="offset" />
          </mxGeometry>
        </mxCell>
        <mxCell id="spKQ24fph7Tg9B2GQlF--16" value="" style="endArrow=classic;html=1;rounded=0;exitX=0.183;exitY=1.003;exitDx=0;exitDy=0;exitPerimeter=0;" parent="1" edge="1">
          <mxGeometry width="50" height="50" relative="1" as="geometry">
            <mxPoint x="1460.31" y="235" as="sourcePoint" />
            <mxPoint x="1460.31" y="330" as="targetPoint" />
          </mxGeometry>
        </mxCell>
        <mxCell id="spKQ24fph7Tg9B2GQlF--17" value="mem_write" style="edgeLabel;html=1;align=center;verticalAlign=middle;resizable=0;points=[];" parent="spKQ24fph7Tg9B2GQlF--16" vertex="1" connectable="0">
          <mxGeometry x="0.557" y="1" relative="1" as="geometry">
            <mxPoint y="-19" as="offset" />
          </mxGeometry>
        </mxCell>
        <mxCell id="OXf1hN6xtQfnmM5KDWMP-155" style="edgeStyle=orthogonalEdgeStyle;rounded=0;orthogonalLoop=1;jettySize=auto;html=1;exitX=0.5;exitY=0;exitDx=0;exitDy=0;entryX=0;entryY=0.5;entryDx=0;entryDy=0;" parent="1" source="WulUEYC8_41dMv2FCYNq-27" edge="1" target="WulUEYC8_41dMv2FCYNq-22">
          <mxGeometry relative="1" as="geometry">
            <mxPoint x="60" y="240" as="targetPoint" />
            <Array as="points">
              <mxPoint x="360" y="70" />
              <mxPoint x="360" y="185" />
              <mxPoint x="165" y="185" />
            </Array>
          </mxGeometry>
        </mxCell>
        <mxCell id="WulUEYC8_41dMv2FCYNq-86" style="edgeStyle=orthogonalEdgeStyle;rounded=0;orthogonalLoop=1;jettySize=auto;html=1;entryX=0.25;entryY=1;entryDx=0;entryDy=0;" parent="1" source="WulUEYC8_41dMv2FCYNq-27" target="WulUEYC8_41dMv2FCYNq-35" edge="1">
          <mxGeometry relative="1" as="geometry" />
        </mxCell>
        <mxCell id="WulUEYC8_41dMv2FCYNq-27" value="PC" style="rounded=0;whiteSpace=wrap;html=1;rotation=90;" parent="1" vertex="1">
          <mxGeometry x="250" y="40" width="120" height="60" as="geometry" />
        </mxCell>
        <mxCell id="spKQ24fph7Tg9B2GQlF--18" value="" style="endArrow=classic;html=1;rounded=0;exitX=0.183;exitY=1.003;exitDx=0;exitDy=0;exitPerimeter=0;" parent="1" edge="1">
          <mxGeometry width="50" height="50" relative="1" as="geometry">
            <mxPoint x="1499.9699999999998" y="235" as="sourcePoint" />
            <mxPoint x="1500" y="330" as="targetPoint" />
          </mxGeometry>
        </mxCell>
        <mxCell id="spKQ24fph7Tg9B2GQlF--19" value="&lt;font style=&quot;font-size: 10px;&quot;&gt;&lt;font style=&quot;font-size: 9px;&quot;&gt;mem_wdata32&lt;/font&gt;&lt;/font&gt;" style="edgeLabel;html=1;align=center;verticalAlign=middle;resizable=0;points=[];" parent="spKQ24fph7Tg9B2GQlF--18" vertex="1" connectable="0">
          <mxGeometry x="0.557" y="1" relative="1" as="geometry">
            <mxPoint x="-1" y="1" as="offset" />
          </mxGeometry>
        </mxCell>
        <mxCell id="WulUEYC8_41dMv2FCYNq-28" value="" style="endArrow=classic;html=1;rounded=0;" parent="1" target="WulUEYC8_41dMv2FCYNq-29" edge="1">
          <mxGeometry width="50" height="50" relative="1" as="geometry">
            <mxPoint x="340" y="60" as="sourcePoint" />
            <mxPoint x="310" y="-50" as="targetPoint" />
            <Array as="points">
              <mxPoint x="390" y="60" />
              <mxPoint x="390" y="-50" />
            </Array>
          </mxGeometry>
        </mxCell>
        <mxCell id="spKQ24fph7Tg9B2GQlF--20" value="" style="endArrow=classic;html=1;rounded=0;" parent="1" edge="1">
          <mxGeometry width="50" height="50" relative="1" as="geometry">
            <mxPoint x="1555.31" y="430" as="sourcePoint" />
            <mxPoint x="1555.31" y="235" as="targetPoint" />
          </mxGeometry>
        </mxCell>
        <mxCell id="spKQ24fph7Tg9B2GQlF--21" value="m&lt;font style=&quot;font-size: 10px;&quot;&gt;&lt;font style=&quot;font-size: 9px;&quot;&gt;em_rdata32&lt;/font&gt;&lt;/font&gt;" style="edgeLabel;html=1;align=center;verticalAlign=middle;resizable=0;points=[];" parent="spKQ24fph7Tg9B2GQlF--20" vertex="1" connectable="0">
          <mxGeometry x="0.557" y="1" relative="1" as="geometry">
            <mxPoint x="-1" y="82" as="offset" />
          </mxGeometry>
        </mxCell>
        <mxCell id="WulUEYC8_41dMv2FCYNq-29" value="+4" style="ellipse;whiteSpace=wrap;html=1;aspect=fixed;" parent="1" vertex="1">
          <mxGeometry x="270" y="-70" width="40" height="40" as="geometry" />
        </mxCell>
        <mxCell id="spKQ24fph7Tg9B2GQlF--22" value="" style="endArrow=classic;html=1;rounded=0;exitX=0.183;exitY=1.003;exitDx=0;exitDy=0;exitPerimeter=0;" parent="1" edge="1">
          <mxGeometry width="50" height="50" relative="1" as="geometry">
            <mxPoint x="1585.31" y="330" as="sourcePoint" />
            <mxPoint x="1585.31" y="235" as="targetPoint" />
          </mxGeometry>
        </mxCell>
        <mxCell id="spKQ24fph7Tg9B2GQlF--23" value="&lt;div&gt;&lt;font style=&quot;font-size: 10px;&quot;&gt;&lt;font style=&quot;font-size: 9px;&quot;&gt;mem_resp&lt;/font&gt;&lt;/font&gt;&lt;/div&gt;" style="edgeLabel;html=1;align=center;verticalAlign=middle;resizable=0;points=[];" parent="spKQ24fph7Tg9B2GQlF--22" vertex="1" connectable="0">
          <mxGeometry x="0.557" y="1" relative="1" as="geometry">
            <mxPoint x="-1" y="24" as="offset" />
          </mxGeometry>
        </mxCell>
        <mxCell id="WulUEYC8_41dMv2FCYNq-30" value="" style="endArrow=classic;html=1;rounded=0;exitX=0;exitY=0.5;exitDx=0;exitDy=0;" parent="1" source="WulUEYC8_41dMv2FCYNq-29" edge="1">
          <mxGeometry width="50" height="50" relative="1" as="geometry">
            <mxPoint x="320" y="10" as="sourcePoint" />
            <mxPoint x="150" y="60" as="targetPoint" />
            <Array as="points">
              <mxPoint x="110" y="-50" />
              <mxPoint x="110" y="60" />
            </Array>
          </mxGeometry>
        </mxCell>
        <mxCell id="WulUEYC8_41dMv2FCYNq-31" value="&lt;div&gt;&lt;br&gt;&lt;/div&gt;" style="shape=trapezoid;perimeter=trapezoidPerimeter;whiteSpace=wrap;html=1;fixedSize=1;rotation=90;" parent="1" vertex="1">
          <mxGeometry x="125" y="70" width="80" height="30" as="geometry" />
        </mxCell>
        <mxCell id="WulUEYC8_41dMv2FCYNq-32" value="" style="endArrow=classic;html=1;rounded=0;exitX=0.5;exitY=0;exitDx=0;exitDy=0;entryX=0.625;entryY=0.967;entryDx=0;entryDy=0;entryPerimeter=0;" parent="1" source="WulUEYC8_41dMv2FCYNq-31" target="WulUEYC8_41dMv2FCYNq-27" edge="1">
          <mxGeometry width="50" height="50" relative="1" as="geometry">
            <mxPoint x="370" y="100" as="sourcePoint" />
            <mxPoint x="420" y="50" as="targetPoint" />
          </mxGeometry>
        </mxCell>
        <mxCell id="WulUEYC8_41dMv2FCYNq-33" value="&lt;div&gt;0&lt;/div&gt;&lt;div&gt;&lt;br&gt;&lt;/div&gt;&lt;div&gt;1&lt;br&gt;&lt;/div&gt;" style="text;html=1;strokeColor=none;fillColor=none;align=center;verticalAlign=middle;whiteSpace=wrap;rounded=0;" parent="1" vertex="1">
          <mxGeometry x="152.5" y="50" width="25" height="70" as="geometry" />
        </mxCell>
        <mxCell id="WulUEYC8_41dMv2FCYNq-35" value="&lt;div&gt;Register&lt;/div&gt;" style="rounded=0;whiteSpace=wrap;html=1;rotation=90;" parent="1" vertex="1">
          <mxGeometry x="165" y="205" width="600" height="30" as="geometry" />
        </mxCell>
        <mxCell id="WulUEYC8_41dMv2FCYNq-36" value="Instruction Fetch" style="text;strokeColor=none;fillColor=none;html=1;fontSize=24;fontStyle=1;verticalAlign=middle;align=center;" parent="1" vertex="1">
          <mxGeometry x="205" y="640" width="100" height="40" as="geometry" />
        </mxCell>
        <mxCell id="WulUEYC8_41dMv2FCYNq-37" value="&lt;div&gt;Regfile&lt;/div&gt;" style="rounded=0;whiteSpace=wrap;html=1;rotation=90;" parent="1" vertex="1">
          <mxGeometry x="530" y="270" width="250" height="150" as="geometry" />
        </mxCell>
        <mxCell id="WulUEYC8_41dMv2FCYNq-38" value="" style="endArrow=classic;html=1;rounded=0;entryX=0.299;entryY=1.018;entryDx=0;entryDy=0;entryPerimeter=0;" parent="1" target="WulUEYC8_41dMv2FCYNq-37" edge="1">
          <mxGeometry width="50" height="50" relative="1" as="geometry">
            <mxPoint x="480" y="295" as="sourcePoint" />
            <mxPoint x="580" y="305" as="targetPoint" />
          </mxGeometry>
        </mxCell>
        <mxCell id="WulUEYC8_41dMv2FCYNq-39" value="rs1" style="edgeLabel;html=1;align=center;verticalAlign=middle;resizable=0;points=[];" parent="WulUEYC8_41dMv2FCYNq-38" connectable="0" vertex="1">
          <mxGeometry x="0.2444" y="2" relative="1" as="geometry">
            <mxPoint x="-35" y="-2" as="offset" />
          </mxGeometry>
        </mxCell>
        <mxCell id="WulUEYC8_41dMv2FCYNq-40" value="" style="endArrow=classic;html=1;rounded=0;entryX=0.45;entryY=0.983;entryDx=0;entryDy=0;entryPerimeter=0;exitX=0.688;exitY=-0.067;exitDx=0;exitDy=0;exitPerimeter=0;" parent="1" source="WulUEYC8_41dMv2FCYNq-35" target="WulUEYC8_41dMv2FCYNq-37" edge="1">
          <mxGeometry width="50" height="50" relative="1" as="geometry">
            <mxPoint x="480" y="325" as="sourcePoint" />
            <mxPoint x="580" y="325" as="targetPoint" />
          </mxGeometry>
        </mxCell>
        <mxCell id="WulUEYC8_41dMv2FCYNq-41" value="rs2" style="edgeLabel;html=1;align=center;verticalAlign=middle;resizable=0;points=[];" parent="WulUEYC8_41dMv2FCYNq-40" connectable="0" vertex="1">
          <mxGeometry x="0.2444" y="2" relative="1" as="geometry">
            <mxPoint x="-35" y="-2" as="offset" />
          </mxGeometry>
        </mxCell>
        <mxCell id="WulUEYC8_41dMv2FCYNq-42" value="" style="endArrow=classic;html=1;rounded=0;entryX=0.633;entryY=1.017;entryDx=0;entryDy=0;entryPerimeter=0;exitX=0.762;exitY=-0.2;exitDx=0;exitDy=0;exitPerimeter=0;" parent="1" source="WulUEYC8_41dMv2FCYNq-35" target="WulUEYC8_41dMv2FCYNq-37" edge="1">
          <mxGeometry width="50" height="50" relative="1" as="geometry">
            <mxPoint x="480" y="345" as="sourcePoint" />
            <mxPoint x="580" y="345" as="targetPoint" />
          </mxGeometry>
        </mxCell>
        <mxCell id="WulUEYC8_41dMv2FCYNq-43" value="rd" style="edgeLabel;html=1;align=center;verticalAlign=middle;resizable=0;points=[];" parent="WulUEYC8_41dMv2FCYNq-42" connectable="0" vertex="1">
          <mxGeometry x="0.2444" y="2" relative="1" as="geometry">
            <mxPoint x="-35" y="-2" as="offset" />
          </mxGeometry>
        </mxCell>
        <mxCell id="WulUEYC8_41dMv2FCYNq-44" value="8&amp;nbsp;&amp;nbsp;&amp;nbsp;&amp;nbsp;&amp;nbsp;&amp;nbsp; 7&amp;nbsp; &amp;nbsp; &amp;nbsp; 6&amp;nbsp; &amp;nbsp; &amp;nbsp; 5&amp;nbsp;&amp;nbsp; &amp;nbsp;&amp;nbsp; 4 &amp;nbsp;&amp;nbsp; &amp;nbsp; 3 &amp;nbsp; &amp;nbsp;&amp;nbsp; 2 &amp;nbsp;&amp;nbsp; &amp;nbsp; 1&amp;nbsp; &amp;nbsp; &amp;nbsp; 0" style="shape=trapezoid;perimeter=trapezoidPerimeter;whiteSpace=wrap;html=1;fixedSize=1;rotation=90;" parent="1" vertex="1">
          <mxGeometry x="1805" y="250" width="320" height="35" as="geometry" />
        </mxCell>
        <mxCell id="WulUEYC8_41dMv2FCYNq-57" value="funct7" style="edgeStyle=orthogonalEdgeStyle;rounded=0;orthogonalLoop=1;jettySize=auto;html=1;exitX=0.25;exitY=0;exitDx=0;exitDy=0;entryX=0.373;entryY=1;entryDx=0;entryDy=0;entryPerimeter=0;" parent="1" edge="1">
          <mxGeometry relative="1" as="geometry">
            <mxPoint x="350" y="335" as="sourcePoint" />
            <mxPoint x="450" y="335" as="targetPoint" />
          </mxGeometry>
        </mxCell>
        <mxCell id="WulUEYC8_41dMv2FCYNq-58" value="opcode" style="edgeStyle=orthogonalEdgeStyle;rounded=0;orthogonalLoop=1;jettySize=auto;html=1;exitX=0.25;exitY=0;exitDx=0;exitDy=0;entryX=0.373;entryY=1;entryDx=0;entryDy=0;entryPerimeter=0;" parent="1" edge="1">
          <mxGeometry relative="1" as="geometry">
            <mxPoint x="350" y="280" as="sourcePoint" />
            <mxPoint x="450" y="280" as="targetPoint" />
          </mxGeometry>
        </mxCell>
        <mxCell id="WulUEYC8_41dMv2FCYNq-59" value="imm" style="edgeStyle=orthogonalEdgeStyle;rounded=0;orthogonalLoop=1;jettySize=auto;html=1;exitX=0.25;exitY=0;exitDx=0;exitDy=0;entryX=0.373;entryY=1;entryDx=0;entryDy=0;entryPerimeter=0;" parent="1" edge="1">
          <mxGeometry relative="1" as="geometry">
            <mxPoint x="350" y="360" as="sourcePoint" />
            <mxPoint x="450" y="360" as="targetPoint" />
          </mxGeometry>
        </mxCell>
        <mxCell id="WulUEYC8_41dMv2FCYNq-60" value="rs1" style="edgeStyle=orthogonalEdgeStyle;rounded=0;orthogonalLoop=1;jettySize=auto;html=1;exitX=0.25;exitY=0;exitDx=0;exitDy=0;entryX=0.373;entryY=1;entryDx=0;entryDy=0;entryPerimeter=0;" parent="1" edge="1">
          <mxGeometry relative="1" as="geometry">
            <mxPoint x="350" y="385" as="sourcePoint" />
            <mxPoint x="450" y="385" as="targetPoint" />
          </mxGeometry>
        </mxCell>
        <mxCell id="WulUEYC8_41dMv2FCYNq-61" value="rs2" style="edgeStyle=orthogonalEdgeStyle;rounded=0;orthogonalLoop=1;jettySize=auto;html=1;exitX=0.25;exitY=0;exitDx=0;exitDy=0;entryX=0.373;entryY=1;entryDx=0;entryDy=0;entryPerimeter=0;" parent="1" edge="1">
          <mxGeometry relative="1" as="geometry">
            <mxPoint x="350" y="410" as="sourcePoint" />
            <mxPoint x="450" y="410" as="targetPoint" />
          </mxGeometry>
        </mxCell>
        <mxCell id="WulUEYC8_41dMv2FCYNq-62" value="rd" style="edgeStyle=orthogonalEdgeStyle;rounded=0;orthogonalLoop=1;jettySize=auto;html=1;exitX=0.25;exitY=0;exitDx=0;exitDy=0;entryX=0.373;entryY=1;entryDx=0;entryDy=0;entryPerimeter=0;" parent="1" edge="1">
          <mxGeometry relative="1" as="geometry">
            <mxPoint x="350" y="430" as="sourcePoint" />
            <mxPoint x="450" y="430" as="targetPoint" />
          </mxGeometry>
        </mxCell>
        <mxCell id="OXf1hN6xtQfnmM5KDWMP-63" value="ALU" style="rounded=0;whiteSpace=wrap;html=1;" parent="1" vertex="1">
          <mxGeometry x="1080" y="140" width="100" height="170" as="geometry" />
        </mxCell>
        <mxCell id="OXf1hN6xtQfnmM5KDWMP-64" value="" style="endArrow=classic;html=1;rounded=0;entryX=0.5;entryY=0;entryDx=0;entryDy=0;exitX=1.094;exitY=0.204;exitDx=0;exitDy=0;exitPerimeter=0;edgeStyle=orthogonalEdgeStyle;" parent="1" source="OXf1hN6xtQfnmM5KDWMP-82" target="OXf1hN6xtQfnmM5KDWMP-63" edge="1">
          <mxGeometry width="50" height="50" relative="1" as="geometry">
            <mxPoint x="1180" y="40" as="sourcePoint" />
            <mxPoint x="1210" y="270" as="targetPoint" />
          </mxGeometry>
        </mxCell>
        <mxCell id="OXf1hN6xtQfnmM5KDWMP-65" value="alupop" style="edgeLabel;html=1;align=center;verticalAlign=middle;resizable=0;points=[];" parent="OXf1hN6xtQfnmM5KDWMP-64" connectable="0" vertex="1">
          <mxGeometry x="-0.5209" y="1" relative="1" as="geometry">
            <mxPoint as="offset" />
          </mxGeometry>
        </mxCell>
        <mxCell id="OXf1hN6xtQfnmM5KDWMP-66" value="alumux2" style="trapezoid;whiteSpace=wrap;html=1;" parent="1" vertex="1">
          <mxGeometry x="960" y="230" width="50" height="100" as="geometry" />
        </mxCell>
        <mxCell id="OXf1hN6xtQfnmM5KDWMP-67" value="" style="endArrow=classic;html=1;rounded=0;" parent="1" edge="1">
          <mxGeometry width="50" height="50" relative="1" as="geometry">
            <mxPoint x="870" y="249.57999999999998" as="sourcePoint" />
            <mxPoint x="960" y="249.57999999999998" as="targetPoint" />
          </mxGeometry>
        </mxCell>
        <mxCell id="OXf1hN6xtQfnmM5KDWMP-68" value="op_imm_i" style="edgeLabel;html=1;align=center;verticalAlign=middle;resizable=0;points=[];" parent="OXf1hN6xtQfnmM5KDWMP-67" connectable="0" vertex="1">
          <mxGeometry x="-0.5378" y="-1" relative="1" as="geometry">
            <mxPoint x="18" y="-6" as="offset" />
          </mxGeometry>
        </mxCell>
        <mxCell id="OXf1hN6xtQfnmM5KDWMP-69" value="alumux1" style="trapezoid;whiteSpace=wrap;html=1;" parent="1" vertex="1">
          <mxGeometry x="960" y="110" width="50" height="100" as="geometry" />
        </mxCell>
        <mxCell id="OXf1hN6xtQfnmM5KDWMP-70" value="" style="endArrow=classic;html=1;rounded=0;entryX=0.055;entryY=0.248;entryDx=0;entryDy=0;entryPerimeter=0;" parent="1" edge="1">
          <mxGeometry width="50" height="50" relative="1" as="geometry">
            <mxPoint x="871" y="135" as="sourcePoint" />
            <mxPoint x="963.75" y="134.79999999999995" as="targetPoint" />
          </mxGeometry>
        </mxCell>
        <mxCell id="OXf1hN6xtQfnmM5KDWMP-71" value="rs1_data_alu_s" style="edgeLabel;html=1;align=center;verticalAlign=middle;resizable=0;points=[];" parent="OXf1hN6xtQfnmM5KDWMP-70" connectable="0" vertex="1">
          <mxGeometry x="-0.3503" y="-1" relative="1" as="geometry">
            <mxPoint x="9" y="-16" as="offset" />
          </mxGeometry>
        </mxCell>
        <mxCell id="OXf1hN6xtQfnmM5KDWMP-72" value="" style="endArrow=classic;html=1;rounded=0;entryX=0.037;entryY=0.787;entryDx=0;entryDy=0;entryPerimeter=0;" parent="1" target="OXf1hN6xtQfnmM5KDWMP-69" edge="1">
          <mxGeometry width="50" height="50" relative="1" as="geometry">
            <mxPoint x="870" y="189" as="sourcePoint" />
            <mxPoint x="963" y="190" as="targetPoint" />
          </mxGeometry>
        </mxCell>
        <mxCell id="OXf1hN6xtQfnmM5KDWMP-73" value="pc_alu_s" style="edgeLabel;html=1;align=center;verticalAlign=middle;resizable=0;points=[];" parent="OXf1hN6xtQfnmM5KDWMP-72" connectable="0" vertex="1">
          <mxGeometry x="-0.59" y="2" relative="1" as="geometry">
            <mxPoint x="11" as="offset" />
          </mxGeometry>
        </mxCell>
        <mxCell id="OXf1hN6xtQfnmM5KDWMP-74" value="" style="endArrow=classic;html=1;rounded=0;entryX=0.5;entryY=1;entryDx=0;entryDy=0;exitX=1;exitY=0.8;exitDx=0;exitDy=0;exitPerimeter=0;edgeStyle=orthogonalEdgeStyle;" parent="1" source="OXf1hN6xtQfnmM5KDWMP-82" target="OXf1hN6xtQfnmM5KDWMP-66" edge="1">
          <mxGeometry width="50" height="50" relative="1" as="geometry">
            <mxPoint x="985" y="380" as="sourcePoint" />
            <mxPoint x="1080" y="270" as="targetPoint" />
            <Array as="points">
              <mxPoint x="985" y="390" />
            </Array>
          </mxGeometry>
        </mxCell>
        <mxCell id="OXf1hN6xtQfnmM5KDWMP-75" value="alumuxsel2" style="edgeLabel;html=1;align=center;verticalAlign=middle;resizable=0;points=[];" parent="OXf1hN6xtQfnmM5KDWMP-74" connectable="0" vertex="1">
          <mxGeometry x="-0.3493" relative="1" as="geometry">
            <mxPoint as="offset" />
          </mxGeometry>
        </mxCell>
        <mxCell id="OXf1hN6xtQfnmM5KDWMP-76" value="" style="endArrow=classic;html=1;rounded=0;entryX=0.5;entryY=0;entryDx=0;entryDy=0;exitX=1.039;exitY=0.229;exitDx=0;exitDy=0;exitPerimeter=0;edgeStyle=orthogonalEdgeStyle;" parent="1" source="OXf1hN6xtQfnmM5KDWMP-82" target="OXf1hN6xtQfnmM5KDWMP-69" edge="1">
          <mxGeometry width="50" height="50" relative="1" as="geometry">
            <mxPoint x="985" y="50" as="sourcePoint" />
            <mxPoint x="990" y="50" as="targetPoint" />
            <Array as="points">
              <mxPoint x="915" y="47" />
              <mxPoint x="985" y="47" />
            </Array>
          </mxGeometry>
        </mxCell>
        <mxCell id="OXf1hN6xtQfnmM5KDWMP-77" value="alumuxsel2" style="edgeLabel;html=1;align=center;verticalAlign=middle;resizable=0;points=[];" parent="OXf1hN6xtQfnmM5KDWMP-76" connectable="0" vertex="1">
          <mxGeometry x="-0.3319" y="2" relative="1" as="geometry">
            <mxPoint as="offset" />
          </mxGeometry>
        </mxCell>
        <mxCell id="OXf1hN6xtQfnmM5KDWMP-78" value="" style="endArrow=classic;html=1;rounded=0;exitX=1;exitY=0.5;exitDx=0;exitDy=0;entryX=-0.012;entryY=0.12;entryDx=0;entryDy=0;entryPerimeter=0;" parent="1" source="OXf1hN6xtQfnmM5KDWMP-69" target="OXf1hN6xtQfnmM5KDWMP-63" edge="1">
          <mxGeometry width="50" height="50" relative="1" as="geometry">
            <mxPoint x="1010" y="320" as="sourcePoint" />
            <mxPoint x="1060" y="270" as="targetPoint" />
          </mxGeometry>
        </mxCell>
        <mxCell id="OXf1hN6xtQfnmM5KDWMP-79" value="alu_in_1" style="edgeLabel;html=1;align=center;verticalAlign=middle;resizable=0;points=[];" parent="OXf1hN6xtQfnmM5KDWMP-78" connectable="0" vertex="1">
          <mxGeometry x="0.2286" y="-3" relative="1" as="geometry">
            <mxPoint x="-9" y="-3" as="offset" />
          </mxGeometry>
        </mxCell>
        <mxCell id="OXf1hN6xtQfnmM5KDWMP-80" value="" style="endArrow=classic;html=1;rounded=0;entryX=-0.003;entryY=0.816;entryDx=0;entryDy=0;exitX=1;exitY=0.5;exitDx=0;exitDy=0;entryPerimeter=0;" parent="1" source="OXf1hN6xtQfnmM5KDWMP-66" target="OXf1hN6xtQfnmM5KDWMP-63" edge="1">
          <mxGeometry width="50" height="50" relative="1" as="geometry">
            <mxPoint x="1010" y="320" as="sourcePoint" />
            <mxPoint x="1060" y="270" as="targetPoint" />
          </mxGeometry>
        </mxCell>
        <mxCell id="OXf1hN6xtQfnmM5KDWMP-81" value="alu_in_2" style="edgeLabel;html=1;align=center;verticalAlign=middle;resizable=0;points=[];" parent="OXf1hN6xtQfnmM5KDWMP-80" connectable="0" vertex="1">
          <mxGeometry x="-0.2886" y="-3" relative="1" as="geometry">
            <mxPoint x="11" y="-3" as="offset" />
          </mxGeometry>
        </mxCell>
        <mxCell id="OXf1hN6xtQfnmM5KDWMP-82" value="Register" style="rounded=0;whiteSpace=wrap;html=1;" parent="1" vertex="1">
          <mxGeometry x="840" y="-90" width="30" height="600" as="geometry" />
        </mxCell>
        <mxCell id="OXf1hN6xtQfnmM5KDWMP-83" value="" style="endArrow=classic;html=1;rounded=0;" parent="1" edge="1">
          <mxGeometry width="50" height="50" relative="1" as="geometry">
            <mxPoint x="870" y="260" as="sourcePoint" />
            <mxPoint x="960" y="260" as="targetPoint" />
          </mxGeometry>
        </mxCell>
        <mxCell id="OXf1hN6xtQfnmM5KDWMP-84" value="op_imm_u" style="edgeLabel;html=1;align=center;verticalAlign=middle;resizable=0;points=[];" parent="OXf1hN6xtQfnmM5KDWMP-83" connectable="0" vertex="1">
          <mxGeometry x="-0.5378" y="-1" relative="1" as="geometry">
            <mxPoint x="18" y="-6" as="offset" />
          </mxGeometry>
        </mxCell>
        <mxCell id="OXf1hN6xtQfnmM5KDWMP-85" value="" style="endArrow=classic;html=1;rounded=0;" parent="1" edge="1">
          <mxGeometry width="50" height="50" relative="1" as="geometry">
            <mxPoint x="870" y="270" as="sourcePoint" />
            <mxPoint x="960" y="270" as="targetPoint" />
          </mxGeometry>
        </mxCell>
        <mxCell id="OXf1hN6xtQfnmM5KDWMP-86" value="op_imm_b" style="edgeLabel;html=1;align=center;verticalAlign=middle;resizable=0;points=[];" parent="OXf1hN6xtQfnmM5KDWMP-85" connectable="0" vertex="1">
          <mxGeometry x="-0.5378" y="-1" relative="1" as="geometry">
            <mxPoint x="18" y="-6" as="offset" />
          </mxGeometry>
        </mxCell>
        <mxCell id="OXf1hN6xtQfnmM5KDWMP-87" value="" style="endArrow=classic;html=1;rounded=0;" parent="1" edge="1">
          <mxGeometry width="50" height="50" relative="1" as="geometry">
            <mxPoint x="870" y="280" as="sourcePoint" />
            <mxPoint x="960" y="280" as="targetPoint" />
          </mxGeometry>
        </mxCell>
        <mxCell id="OXf1hN6xtQfnmM5KDWMP-88" value="op_imm_s" style="edgeLabel;html=1;align=center;verticalAlign=middle;resizable=0;points=[];" parent="OXf1hN6xtQfnmM5KDWMP-87" connectable="0" vertex="1">
          <mxGeometry x="-0.5378" y="-1" relative="1" as="geometry">
            <mxPoint x="18" y="-6" as="offset" />
          </mxGeometry>
        </mxCell>
        <mxCell id="OXf1hN6xtQfnmM5KDWMP-89" value="" style="endArrow=classic;html=1;rounded=0;" parent="1" edge="1">
          <mxGeometry width="50" height="50" relative="1" as="geometry">
            <mxPoint x="870" y="290" as="sourcePoint" />
            <mxPoint x="960" y="290" as="targetPoint" />
          </mxGeometry>
        </mxCell>
        <mxCell id="OXf1hN6xtQfnmM5KDWMP-90" value="op_imm_j" style="edgeLabel;html=1;align=center;verticalAlign=middle;resizable=0;points=[];" parent="OXf1hN6xtQfnmM5KDWMP-89" connectable="0" vertex="1">
          <mxGeometry x="-0.5378" y="-1" relative="1" as="geometry">
            <mxPoint x="18" y="-1" as="offset" />
          </mxGeometry>
        </mxCell>
        <mxCell id="OXf1hN6xtQfnmM5KDWMP-91" value="" style="endArrow=classic;html=1;rounded=0;" parent="1" edge="1">
          <mxGeometry width="50" height="50" relative="1" as="geometry">
            <mxPoint x="870" y="320" as="sourcePoint" />
            <mxPoint x="960" y="320" as="targetPoint" />
          </mxGeometry>
        </mxCell>
        <mxCell id="OXf1hN6xtQfnmM5KDWMP-92" value="rs2_data_alu_s" style="edgeLabel;html=1;align=center;verticalAlign=middle;resizable=0;points=[];" parent="OXf1hN6xtQfnmM5KDWMP-91" connectable="0" vertex="1">
          <mxGeometry x="-0.5378" y="-1" relative="1" as="geometry">
            <mxPoint x="18" y="-11" as="offset" />
          </mxGeometry>
        </mxCell>
        <mxCell id="OXf1hN6xtQfnmM5KDWMP-93" value="CMP" style="whiteSpace=wrap;html=1;" parent="1" vertex="1">
          <mxGeometry x="1070" y="-100" width="100" height="60" as="geometry" />
        </mxCell>
        <mxCell id="OXf1hN6xtQfnmM5KDWMP-94" value="CMPMUX" style="trapezoid;whiteSpace=wrap;html=1;" parent="1" vertex="1">
          <mxGeometry x="960" y="-80" width="50" height="100" as="geometry" />
        </mxCell>
        <mxCell id="OXf1hN6xtQfnmM5KDWMP-95" value="" style="endArrow=classic;html=1;rounded=0;" parent="1" edge="1">
          <mxGeometry width="50" height="50" relative="1" as="geometry">
            <mxPoint x="870" y="-60" as="sourcePoint" />
            <mxPoint x="960" y="-60" as="targetPoint" />
          </mxGeometry>
        </mxCell>
        <mxCell id="OXf1hN6xtQfnmM5KDWMP-96" value="rs2_data_alu_s" style="edgeLabel;html=1;align=center;verticalAlign=middle;resizable=0;points=[];" parent="OXf1hN6xtQfnmM5KDWMP-95" connectable="0" vertex="1">
          <mxGeometry x="-0.5378" y="-1" relative="1" as="geometry">
            <mxPoint x="18" y="-11" as="offset" />
          </mxGeometry>
        </mxCell>
        <mxCell id="OXf1hN6xtQfnmM5KDWMP-97" value="" style="endArrow=classic;html=1;rounded=0;" parent="1" edge="1">
          <mxGeometry width="50" height="50" relative="1" as="geometry">
            <mxPoint x="870" y="-10" as="sourcePoint" />
            <mxPoint x="960" y="-10" as="targetPoint" />
          </mxGeometry>
        </mxCell>
        <mxCell id="OXf1hN6xtQfnmM5KDWMP-98" value="op_imm_i" style="edgeLabel;html=1;align=center;verticalAlign=middle;resizable=0;points=[];" parent="OXf1hN6xtQfnmM5KDWMP-97" connectable="0" vertex="1">
          <mxGeometry x="-0.5378" y="-1" relative="1" as="geometry">
            <mxPoint x="18" y="-6" as="offset" />
          </mxGeometry>
        </mxCell>
        <mxCell id="OXf1hN6xtQfnmM5KDWMP-99" value="" style="endArrow=classic;html=1;rounded=0;entryX=0;entryY=0.75;entryDx=0;entryDy=0;exitX=1;exitY=0.5;exitDx=0;exitDy=0;edgeStyle=orthogonalEdgeStyle;" parent="1" source="OXf1hN6xtQfnmM5KDWMP-94" target="OXf1hN6xtQfnmM5KDWMP-93" edge="1">
          <mxGeometry width="50" height="50" relative="1" as="geometry">
            <mxPoint x="1010" y="-20" as="sourcePoint" />
            <mxPoint x="1060" y="-70" as="targetPoint" />
          </mxGeometry>
        </mxCell>
        <mxCell id="OXf1hN6xtQfnmM5KDWMP-100" value="" style="endArrow=classic;html=1;rounded=0;exitX=1;exitY=0.833;exitDx=0;exitDy=0;exitPerimeter=0;edgeStyle=orthogonalEdgeStyle;entryX=-0.012;entryY=0.167;entryDx=0;entryDy=0;entryPerimeter=0;" parent="1" target="OXf1hN6xtQfnmM5KDWMP-93" edge="1">
          <mxGeometry width="50" height="50" relative="1" as="geometry">
            <mxPoint x="870" y="-90.19999999999982" as="sourcePoint" />
            <mxPoint x="1130" y="-90" as="targetPoint" />
            <Array as="points">
              <mxPoint x="1060" y="-90" />
              <mxPoint x="1060" y="-90" />
            </Array>
          </mxGeometry>
        </mxCell>
        <mxCell id="OXf1hN6xtQfnmM5KDWMP-107" value="rs1_data_alu_s" style="edgeLabel;html=1;align=center;verticalAlign=middle;resizable=0;points=[];" parent="OXf1hN6xtQfnmM5KDWMP-100" connectable="0" vertex="1">
          <mxGeometry x="0.3921" y="3" relative="1" as="geometry">
            <mxPoint x="-55" y="-7" as="offset" />
          </mxGeometry>
        </mxCell>
        <mxCell id="spKQ24fph7Tg9B2GQlF--35" value="" style="rounded=0;whiteSpace=wrap;html=1;" parent="1" vertex="1">
          <mxGeometry x="1670" y="-100" width="30" height="600" as="geometry" />
        </mxCell>
        <mxCell id="WulUEYC8_41dMv2FCYNq-65" value="" style="rounded=0;whiteSpace=wrap;html=1;" parent="1" vertex="1">
          <mxGeometry x="1250" y="-100" width="30" height="600" as="geometry" />
        </mxCell>
        <mxCell id="spKQ24fph7Tg9B2GQlF--36" value="" style="endArrow=classic;html=1;rounded=0;entryX=-0.12;entryY=0.535;entryDx=0;entryDy=0;entryPerimeter=0;" parent="1" target="spKQ24fph7Tg9B2GQlF--35" edge="1">
          <mxGeometry width="50" height="50" relative="1" as="geometry">
            <mxPoint x="1555.31" y="380" as="sourcePoint" />
            <mxPoint x="1625.31" y="360" as="targetPoint" />
            <Array as="points">
              <mxPoint x="1640" y="380" />
              <mxPoint x="1640" y="220" />
              <mxPoint x="1650" y="220" />
            </Array>
          </mxGeometry>
        </mxCell>
        <mxCell id="spKQ24fph7Tg9B2GQlF--39" value="" style="endArrow=classic;html=1;rounded=0;exitX=1.007;exitY=0.539;exitDx=0;exitDy=0;exitPerimeter=0;entryX=0.177;entryY=0.015;entryDx=0;entryDy=0;entryPerimeter=0;" parent="1" target="spKQ24fph7Tg9B2GQlF--1" edge="1">
          <mxGeometry width="50" height="50" relative="1" as="geometry">
            <mxPoint x="1280" y="225" as="sourcePoint" />
            <mxPoint x="1425.12" y="164.06500000000014" as="targetPoint" />
            <Array as="points">
              <mxPoint x="1330" y="225" />
              <mxPoint x="1330" y="120" />
              <mxPoint x="1425" y="120" />
            </Array>
          </mxGeometry>
        </mxCell>
        <mxCell id="spKQ24fph7Tg9B2GQlF--40" value="alu_out-&amp;gt;mem_address" style="edgeLabel;html=1;align=center;verticalAlign=middle;resizable=0;points=[];" parent="spKQ24fph7Tg9B2GQlF--39" vertex="1" connectable="0">
          <mxGeometry x="-0.3236" relative="1" as="geometry">
            <mxPoint x="20" y="-29" as="offset" />
          </mxGeometry>
        </mxCell>
        <mxCell id="spKQ24fph7Tg9B2GQlF--41" value="" style="endArrow=classic;html=1;rounded=0;entryX=0;entryY=0.917;entryDx=0;entryDy=0;entryPerimeter=0;" parent="1" target="spKQ24fph7Tg9B2GQlF--35" edge="1">
          <mxGeometry width="50" height="50" relative="1" as="geometry">
            <mxPoint x="1427.31" y="451" as="sourcePoint" />
            <mxPoint x="1525.31" y="420" as="targetPoint" />
          </mxGeometry>
        </mxCell>
        <mxCell id="spKQ24fph7Tg9B2GQlF--51" style="edgeStyle=orthogonalEdgeStyle;rounded=0;orthogonalLoop=1;jettySize=auto;html=1;exitX=0.5;exitY=0;exitDx=0;exitDy=0;entryX=1;entryY=0.5;entryDx=0;entryDy=0;" parent="1" source="WulUEYC8_41dMv2FCYNq-44" target="WulUEYC8_41dMv2FCYNq-37" edge="1">
          <mxGeometry relative="1" as="geometry">
            <mxPoint x="680" y="420" as="targetPoint" />
            <Array as="points">
              <mxPoint x="2010" y="268" />
              <mxPoint x="2010" y="580" />
              <mxPoint x="655" y="580" />
            </Array>
            <mxPoint x="1885.31" y="190" as="sourcePoint" />
          </mxGeometry>
        </mxCell>
        <mxCell id="spKQ24fph7Tg9B2GQlF--53" value="regfile_data_in" style="edgeLabel;html=1;align=center;verticalAlign=middle;resizable=0;points=[];" parent="spKQ24fph7Tg9B2GQlF--51" vertex="1" connectable="0">
          <mxGeometry x="0.3263" y="-4" relative="1" as="geometry">
            <mxPoint x="-1" as="offset" />
          </mxGeometry>
        </mxCell>
        <mxCell id="OXf1hN6xtQfnmM5KDWMP-101" value="alu_out" style="endArrow=classic;html=1;rounded=0;entryX=0;entryY=0.542;entryDx=0;entryDy=0;entryPerimeter=0;exitX=1;exitY=0.5;exitDx=0;exitDy=0;edgeStyle=orthogonalEdgeStyle;" parent="1" source="OXf1hN6xtQfnmM5KDWMP-63" target="WulUEYC8_41dMv2FCYNq-65" edge="1">
          <mxGeometry width="50" height="50" relative="1" as="geometry">
            <mxPoint x="1090" y="240" as="sourcePoint" />
            <mxPoint x="1140" y="190" as="targetPoint" />
            <Array as="points">
              <mxPoint x="1200" y="225" />
              <mxPoint x="1200" y="225" />
            </Array>
          </mxGeometry>
        </mxCell>
        <mxCell id="OXf1hN6xtQfnmM5KDWMP-131" value="" style="endArrow=classic;html=1;rounded=0;" parent="1" edge="1">
          <mxGeometry width="50" height="50" relative="1" as="geometry">
            <mxPoint x="1170" y="-60" as="sourcePoint" />
            <mxPoint x="1250" y="-60" as="targetPoint" />
          </mxGeometry>
        </mxCell>
        <mxCell id="OXf1hN6xtQfnmM5KDWMP-132" value="cmp_out" style="edgeLabel;html=1;align=center;verticalAlign=middle;resizable=0;points=[];" parent="OXf1hN6xtQfnmM5KDWMP-131" connectable="0" vertex="1">
          <mxGeometry x="-0.5071" y="1" relative="1" as="geometry">
            <mxPoint x="10" as="offset" />
          </mxGeometry>
        </mxCell>
        <mxCell id="OXf1hN6xtQfnmM5KDWMP-135" value="" style="endArrow=classic;html=1;rounded=0;exitX=1.167;exitY=0.067;exitDx=0;exitDy=0;exitPerimeter=0;" parent="1" source="WulUEYC8_41dMv2FCYNq-65" edge="1">
          <mxGeometry width="50" height="50" relative="1" as="geometry">
            <mxPoint x="1300" y="-60" as="sourcePoint" />
            <mxPoint x="1360" y="-60" as="targetPoint" />
          </mxGeometry>
        </mxCell>
        <mxCell id="OXf1hN6xtQfnmM5KDWMP-139" value="cmp_out" style="edgeLabel;html=1;align=center;verticalAlign=middle;resizable=0;points=[];" parent="OXf1hN6xtQfnmM5KDWMP-135" connectable="0" vertex="1">
          <mxGeometry x="-0.353" y="2" relative="1" as="geometry">
            <mxPoint as="offset" />
          </mxGeometry>
        </mxCell>
        <mxCell id="spKQ24fph7Tg9B2GQlF--54" value="" style="endArrow=classic;html=1;rounded=0;" parent="1" edge="1">
          <mxGeometry width="50" height="50" relative="1" as="geometry">
            <mxPoint x="1425" y="150" as="sourcePoint" />
            <mxPoint x="1670" y="120" as="targetPoint" />
            <Array as="points">
              <mxPoint x="1425" y="120" />
              <mxPoint x="1640" y="120" />
            </Array>
          </mxGeometry>
        </mxCell>
        <mxCell id="OXf1hN6xtQfnmM5KDWMP-136" value="" style="endArrow=classic;html=1;rounded=0;exitX=1.167;exitY=0.137;exitDx=0;exitDy=0;exitPerimeter=0;" parent="1" source="WulUEYC8_41dMv2FCYNq-65" edge="1">
          <mxGeometry width="50" height="50" relative="1" as="geometry">
            <mxPoint x="1300" y="-20" as="sourcePoint" />
            <mxPoint x="1360" y="-20" as="targetPoint" />
          </mxGeometry>
        </mxCell>
        <mxCell id="OXf1hN6xtQfnmM5KDWMP-140" value="&lt;div&gt;op_branch&lt;/div&gt;" style="edgeLabel;html=1;align=center;verticalAlign=middle;resizable=0;points=[];" parent="OXf1hN6xtQfnmM5KDWMP-136" connectable="0" vertex="1">
          <mxGeometry x="-0.5617" relative="1" as="geometry">
            <mxPoint x="9" as="offset" />
          </mxGeometry>
        </mxCell>
        <mxCell id="OXf1hN6xtQfnmM5KDWMP-137" value="" style="shape=or;whiteSpace=wrap;html=1;" parent="1" vertex="1">
          <mxGeometry x="1360" y="-70" width="60" height="60" as="geometry" />
        </mxCell>
        <mxCell id="OXf1hN6xtQfnmM5KDWMP-138" value="br_en" style="endArrow=classic;html=1;rounded=0;entryX=0.5;entryY=0;entryDx=0;entryDy=0;edgeStyle=orthogonalEdgeStyle;" parent="1" target="WulUEYC8_41dMv2FCYNq-33" edge="1">
          <mxGeometry width="50" height="50" relative="1" as="geometry">
            <mxPoint x="1420" y="-40" as="sourcePoint" />
            <mxPoint x="1440" y="-90" as="targetPoint" />
            <Array as="points">
              <mxPoint x="1440" y="-40" />
              <mxPoint x="1440" y="-130" />
              <mxPoint x="165" y="-130" />
            </Array>
          </mxGeometry>
        </mxCell>
        <mxCell id="OXf1hN6xtQfnmM5KDWMP-141" value="jmp_addr" style="edgeStyle=orthogonalEdgeStyle;orthogonalLoop=1;jettySize=auto;html=1;rounded=0;entryX=0;entryY=0.75;entryDx=0;entryDy=0;" parent="1" target="WulUEYC8_41dMv2FCYNq-33" edge="1">
          <mxGeometry x="0.0297" width="100" relative="1" as="geometry">
            <mxPoint x="1285.31" y="20" as="sourcePoint" />
            <mxPoint x="1385.31" y="20" as="targetPoint" />
            <Array as="points">
              <mxPoint x="1460" y="20" />
              <mxPoint x="1460" y="-150" />
              <mxPoint x="100" y="-150" />
              <mxPoint x="100" y="103" />
            </Array>
            <mxPoint as="offset" />
          </mxGeometry>
        </mxCell>
        <mxCell id="OXf1hN6xtQfnmM5KDWMP-142" value="ALU_out" style="edgeLabel;html=1;align=center;verticalAlign=middle;resizable=0;points=[];" parent="OXf1hN6xtQfnmM5KDWMP-141" connectable="0" vertex="1">
          <mxGeometry x="0.3129" y="1" relative="1" as="geometry">
            <mxPoint x="834" y="199" as="offset" />
          </mxGeometry>
        </mxCell>
        <mxCell id="OXf1hN6xtQfnmM5KDWMP-147" value="Instruction" style="endArrow=classic;html=1;rounded=0;entryX=0.517;entryY=1.102;entryDx=0;entryDy=0;entryPerimeter=0;edgeStyle=orthogonalEdgeStyle;" parent="1" target="WulUEYC8_41dMv2FCYNq-35" edge="1">
          <mxGeometry width="50" height="50" relative="1" as="geometry">
            <mxPoint x="320" y="270" as="sourcePoint" />
            <mxPoint x="370" y="220" as="targetPoint" />
            <Array as="points">
              <mxPoint x="320" y="230" />
            </Array>
          </mxGeometry>
        </mxCell>
        <mxCell id="WulUEYC8_41dMv2FCYNq-76" value="alu_out" style="endArrow=classic;html=1;rounded=0;" parent="1" edge="1">
          <mxGeometry width="50" height="50" relative="1" as="geometry">
            <mxPoint x="1700" y="375" as="sourcePoint" />
            <mxPoint x="1940" y="375" as="targetPoint" />
          </mxGeometry>
        </mxCell>
        <mxCell id="OXf1hN6xtQfnmM5KDWMP-148" value="" style="endArrow=classic;html=1;rounded=0;entryX=0;entryY=1;entryDx=0;entryDy=0;exitX=0.988;exitY=-0.1;exitDx=0;exitDy=0;exitPerimeter=0;" parent="1" source="WulUEYC8_41dMv2FCYNq-35" target="OXf1hN6xtQfnmM5KDWMP-82" edge="1">
          <mxGeometry width="50" height="50" relative="1" as="geometry">
            <mxPoint x="480" y="235" as="sourcePoint" />
            <mxPoint x="530" y="185" as="targetPoint" />
          </mxGeometry>
        </mxCell>
        <mxCell id="OXf1hN6xtQfnmM5KDWMP-150" value="PC. Instruction" style="edgeLabel;html=1;align=center;verticalAlign=middle;resizable=0;points=[];" parent="OXf1hN6xtQfnmM5KDWMP-148" connectable="0" vertex="1">
          <mxGeometry x="-0.5645" y="-2" relative="1" as="geometry">
            <mxPoint x="204" y="-4" as="offset" />
          </mxGeometry>
        </mxCell>
        <mxCell id="WulUEYC8_41dMv2FCYNq-77" value="br_en" style="edgeStyle=none;orthogonalLoop=1;jettySize=auto;html=1;rounded=0;" parent="1" edge="1">
          <mxGeometry width="100" relative="1" as="geometry">
            <mxPoint x="1700" y="350" as="sourcePoint" />
            <mxPoint x="1940" y="350" as="targetPoint" />
            <Array as="points" />
          </mxGeometry>
        </mxCell>
        <mxCell id="OXf1hN6xtQfnmM5KDWMP-149" value="" style="endArrow=classic;html=1;rounded=0;edgeStyle=orthogonalEdgeStyle;" parent="1" edge="1">
          <mxGeometry width="50" height="50" relative="1" as="geometry">
            <mxPoint x="870" y="500" as="sourcePoint" />
            <mxPoint x="1250" y="500" as="targetPoint" />
            <Array as="points">
              <mxPoint x="870" y="500" />
              <mxPoint x="1250" y="500" />
            </Array>
          </mxGeometry>
        </mxCell>
        <mxCell id="OXf1hN6xtQfnmM5KDWMP-151" value="PC, Instruction" style="edgeLabel;html=1;align=center;verticalAlign=middle;resizable=0;points=[];" parent="OXf1hN6xtQfnmM5KDWMP-149" connectable="0" vertex="1">
          <mxGeometry x="-0.1806" y="-3" relative="1" as="geometry">
            <mxPoint x="144" y="-3" as="offset" />
          </mxGeometry>
        </mxCell>
        <mxCell id="OXf1hN6xtQfnmM5KDWMP-152" value="" style="endArrow=classic;html=1;rounded=0;edgeStyle=orthogonalEdgeStyle;entryX=0.007;entryY=0.868;entryDx=0;entryDy=0;entryPerimeter=0;" parent="1" edge="1">
          <mxGeometry width="50" height="50" relative="1" as="geometry">
            <mxPoint x="1284.48" y="500" as="sourcePoint" />
            <mxPoint x="1670" y="500.8000000000002" as="targetPoint" />
            <Array as="points">
              <mxPoint x="1644.48" y="500" />
            </Array>
          </mxGeometry>
        </mxCell>
        <mxCell id="OXf1hN6xtQfnmM5KDWMP-153" value="PC, Instruction" style="edgeLabel;html=1;align=center;verticalAlign=middle;resizable=0;points=[];" parent="OXf1hN6xtQfnmM5KDWMP-152" connectable="0" vertex="1">
          <mxGeometry x="-0.1806" y="-3" relative="1" as="geometry">
            <mxPoint x="172" as="offset" />
          </mxGeometry>
        </mxCell>
        <mxCell id="spKQ24fph7Tg9B2GQlF--56" value="" style="endArrow=classic;html=1;rounded=0;entryX=0.027;entryY=1.005;entryDx=0;entryDy=0;entryPerimeter=0;" parent="1" target="WulUEYC8_41dMv2FCYNq-35" edge="1">
          <mxGeometry width="50" height="50" relative="1" as="geometry">
            <mxPoint x="230" y="-50" as="sourcePoint" />
            <mxPoint x="280" y="-100" as="targetPoint" />
            <Array as="points">
              <mxPoint x="230" y="-90" />
              <mxPoint x="340" y="-90" />
              <mxPoint x="340" y="-64" />
            </Array>
          </mxGeometry>
        </mxCell>
        <mxCell id="WulUEYC8_41dMv2FCYNq-79" value="u_imm" style="edgeStyle=none;orthogonalLoop=1;jettySize=auto;html=1;rounded=0;" parent="1" edge="1">
          <mxGeometry width="100" relative="1" as="geometry">
            <mxPoint x="1700" y="324" as="sourcePoint" />
            <mxPoint x="1940" y="324" as="targetPoint" />
            <Array as="points" />
          </mxGeometry>
        </mxCell>
        <mxCell id="WulUEYC8_41dMv2FCYNq-80" value="lw" style="edgeStyle=none;orthogonalLoop=1;jettySize=auto;html=1;rounded=0;" parent="1" edge="1">
          <mxGeometry width="100" relative="1" as="geometry">
            <mxPoint x="1700" y="298.5" as="sourcePoint" />
            <mxPoint x="1940" y="298.5" as="targetPoint" />
            <Array as="points" />
          </mxGeometry>
        </mxCell>
        <mxCell id="WulUEYC8_41dMv2FCYNq-81" value="pc_plus_4" style="edgeStyle=none;orthogonalLoop=1;jettySize=auto;html=1;rounded=0;" parent="1" edge="1">
          <mxGeometry width="100" relative="1" as="geometry">
            <mxPoint x="1700" y="269" as="sourcePoint" />
            <mxPoint x="1940" y="269" as="targetPoint" />
            <Array as="points" />
          </mxGeometry>
        </mxCell>
        <mxCell id="WulUEYC8_41dMv2FCYNq-82" value="lb" style="edgeStyle=none;orthogonalLoop=1;jettySize=auto;html=1;rounded=0;" parent="1" edge="1">
          <mxGeometry width="100" relative="1" as="geometry">
            <mxPoint x="1700" y="249" as="sourcePoint" />
            <mxPoint x="1940" y="249" as="targetPoint" />
            <Array as="points" />
          </mxGeometry>
        </mxCell>
        <mxCell id="WulUEYC8_41dMv2FCYNq-83" value="lbu" style="edgeStyle=none;orthogonalLoop=1;jettySize=auto;html=1;rounded=0;" parent="1" edge="1">
          <mxGeometry width="100" relative="1" as="geometry">
            <mxPoint x="1700" y="221" as="sourcePoint" />
            <mxPoint x="1940" y="221" as="targetPoint" />
            <Array as="points" />
          </mxGeometry>
        </mxCell>
        <mxCell id="WulUEYC8_41dMv2FCYNq-84" value="lh" style="edgeStyle=none;orthogonalLoop=1;jettySize=auto;html=1;rounded=0;" parent="1" edge="1">
          <mxGeometry width="100" relative="1" as="geometry">
            <mxPoint x="1700" y="189" as="sourcePoint" />
            <mxPoint x="1940" y="189" as="targetPoint" />
            <Array as="points" />
          </mxGeometry>
        </mxCell>
        <mxCell id="WulUEYC8_41dMv2FCYNq-85" value="lhu" style="edgeStyle=none;orthogonalLoop=1;jettySize=auto;html=1;rounded=0;" parent="1" edge="1">
          <mxGeometry width="100" relative="1" as="geometry">
            <mxPoint x="1700" y="159" as="sourcePoint" />
            <mxPoint x="1940" y="159" as="targetPoint" />
            <Array as="points" />
          </mxGeometry>
        </mxCell>
        <mxCell id="WulUEYC8_41dMv2FCYNq-89" value="rs1_out" style="endArrow=classic;html=1;rounded=0;" parent="1" edge="1">
          <mxGeometry width="50" height="50" relative="1" as="geometry">
            <mxPoint x="730" y="270" as="sourcePoint" />
            <mxPoint x="830" y="270" as="targetPoint" />
          </mxGeometry>
        </mxCell>
        <mxCell id="WulUEYC8_41dMv2FCYNq-90" value="rs2_out" style="endArrow=classic;html=1;rounded=0;" parent="1" edge="1">
          <mxGeometry width="50" height="50" relative="1" as="geometry">
            <mxPoint x="730" y="340" as="sourcePoint" />
            <mxPoint x="830" y="340" as="targetPoint" />
          </mxGeometry>
        </mxCell>
        <mxCell id="cXYFK6wgHOzDuV9A7QU_-2" value="Instruction Decode" style="text;strokeColor=none;fillColor=none;html=1;fontSize=24;fontStyle=1;verticalAlign=middle;align=center;" vertex="1" parent="1">
          <mxGeometry x="600" y="640" width="100" height="40" as="geometry" />
        </mxCell>
        <mxCell id="cXYFK6wgHOzDuV9A7QU_-3" value="Instruction Execute" style="text;strokeColor=none;fillColor=none;html=1;fontSize=24;fontStyle=1;verticalAlign=middle;align=center;" vertex="1" parent="1">
          <mxGeometry x="1080" y="640" width="100" height="40" as="geometry" />
        </mxCell>
        <mxCell id="cXYFK6wgHOzDuV9A7QU_-4" value="Memory Access" style="text;strokeColor=none;fillColor=none;html=1;fontSize=24;fontStyle=1;verticalAlign=middle;align=center;" vertex="1" parent="1">
          <mxGeometry x="1470" y="640" width="100" height="40" as="geometry" />
        </mxCell>
        <mxCell id="cXYFK6wgHOzDuV9A7QU_-5" value="Register Writeback" style="text;strokeColor=none;fillColor=none;html=1;fontSize=24;fontStyle=1;verticalAlign=middle;align=center;" vertex="1" parent="1">
          <mxGeometry x="1810" y="640" width="100" height="40" as="geometry" />
        </mxCell>
        <mxCell id="cXYFK6wgHOzDuV9A7QU_-6" value="Control word: struct of signals&lt;br&gt;Write out relevant signals in each stage" style="text;html=1;strokeColor=none;fillColor=none;align=center;verticalAlign=middle;whiteSpace=wrap;rounded=0;" vertex="1" parent="1">
          <mxGeometry x="140" y="690" width="200" height="100" as="geometry" />
        </mxCell>
      </root>
    </mxGraphModel>
  </diagram>
</mxfile>
